<svg height="512pt" viewBox="-5 0 512 512.00032" width="512pt" xmlns="http://www.w3.org/2000/svg"><path d="m214.558594 352.285156c-68.722656 4.242188-165.277344-.773437-214.558594-22.152344v85.78125c0 5.816407 3.214844 11.210938 8.417969 13.8125 30.1875 15.101563 121.457031 28.078126 217.734375 20.164063-14.382813-31.421875-17.703125-65.898437-11.59375-97.605469zm0 0"/><path d="m333.375 226.796875v-33.351563c-72.574219 31.515626-261.066406 31.367188-333.375 0v100.878907c15.144531 16.753906 114.667969 34.773437 224.246094 26.109375 19.269531-45.695313 59.457031-81.191406 109.128906-93.636719zm0 0"/><path d="m333.375 157.632812v-96.765624c-72.148438 31.335937-260.515625 31.527343-333.375 0v96.765624c35.023438 38.527344 301.066406 35.863282 333.375 0zm0 0"/><path d="m324.25 21.941406c-56.964844-29.074218-258-29.441406-315.183594.011719-3.714844 1.914063-3.714844 7.261719-.003906 9.183594 57.347656 29.65625 258.523438 28.828125 315.1875-.003907 3.734375-1.902343 3.734375-7.285156 0-9.191406zm0 0"/><path d="m372.488281 253.0625c-106.648437 0-167.851562 122.597656-104 207.472656.527344-34.503906 19.972657-65.863281 50.171875-82.042968-7.539062-11.910157-10.894531-25.945313-9.523437-40.101563 3.035156-31.910156 30.171875-57.496094 63.363281-57.496094 35.09375 0 63.648438 28.558594 63.648438 63.664063 0 12.464844-3.605469 24.109375-9.820313 33.933594 29.394531 15.75 49.578125 46.554687 50.171875 82.042968 16.628906-22.144531 25.757812-49.15625 25.757812-77.703125 0-71.558593-58.210937-129.769531-129.769531-129.769531zm0 0"/><path d="m401.105469 401.410156c-17.945313 9.070313-39.257813 9.097656-57.226563 0-25.691406 8.226563-44.324218 32.367188-44.324218 60.742188v28.015625c30.292968 29.554687 116.679687 28.660156 145.878906 0v-28.015625c0-28.394532-18.640625-52.503906-44.328125-60.742188zm0 0"/><path d="m372.5 377.132812c17.949219 0 32.566406-14.625 32.566406-32.578124 0-17.964844-14.609375-32.574219-32.566406-32.574219-17.910156 0-32.578125 14.558593-32.578125 32.574219 0 17.898437 14.554687 32.578124 32.578125 32.578124zm0 0"/></svg>