<svg height="512pt" viewBox="-5 0 512 512" width="512pt" xmlns="http://www.w3.org/2000/svg"><path d="m353.257812 224.144531c0-8.742187 0-161.535156 0-171.203125 0-46.992187-129.523437-52.941406-176.628906-52.941406-47.128906 0-176.628906 5.949219-176.628906 52.941406v352.753906c0 56.777344 183.019531 55.976563 244.042969 49.621094 25.847656 33.78125 67 56.683594 114.589843 56.683594 78.90625 0 143.980469-63.644531 143.980469-143.96875 0-80.507812-66.703125-146.753906-149.355469-143.886719zm-322.308593 179.496094v-79.628906c46.890625 19.175781 132.871093 21.96875 185.914062 18.859375-4.863281 27.5-1.707031 56.644531 9.789063 82.941406-92.75 7.183594-179.460938-7.195312-195.703125-22.171875zm288.527343-350.699219c-45.824218 28.179688-237.285156 29.71875-285.703124 0 47.097656-28.902344 238.242187-29.179687 285.703124 0zm2.835938 175.753906c-43.136719 11.246094-78.675781 42.242188-95.960938 82.515626-91.851562 7.097656-179.039062-7.132813-195.402343-22.191407 0-15.832031 0-69.9375 0-85.878906 65.386719 26.65625 226.179687 26.644531 291.363281-.007813zm-291.363281-142.816406c65.25 26.683594 226.164062 26.648438 291.363281-.007812v82.269531c-36.152344 33.242187-258.878906 30.089844-291.363281 0 0-17.28125 0-66.085937 0-82.261719zm264.910156 376.160156v-.007812c0-8.519531 0-15.382812 0-23.851562 0-24.1875 15.789063-44.671876 37.34375-51.855469 15.234375 7.558593 34.300781 8.109375 50.859375 0 21.683594 7.261719 37.355469 27.769531 37.355469 51.855469v23.851562c-36.578125 24.941406-86.566407 25.988281-125.558594.007812zm62.773437-100.785156c-15.003906 0-27.078124-12.222656-27.078124-27.078125 0-14.949219 12.195312-27.082031 27.078124-27.082031 14.929688 0 27.078126 12.152344 27.078126 27.082031 0 14.875-12.097657 27.078125-27.078126 27.078125zm50.035157 2.289063c5.074219-8.621094 7.992187-18.660157 7.992187-29.367188 0-31.992187-26.027344-58.027343-58.027344-58.027343-31.027343 0-56.3125 24.425781-57.945312 54.878906-.585938 11.890625 2.269531 22.9375 7.914062 32.527344-24.304687 13.699218-41.175781 38.804687-43.449218 68.136718-49.460938-72.726562.089844-172.582031 88.105468-176.558594 92.476563-4.800781 151.320313 99.816407 98.859376 176.539063-2.207032-29.246094-19.179688-54.4375-43.449219-68.128906zm0 0"/></svg>