<?xml version="1.0" encoding="iso-8859-1"?>
<!-- Generator: Adobe Illustrator 19.0.0, SVG Export Plug-In . SVG Version: 6.00 Build 0)  -->
<svg version="1.1" id="Layer_1" xmlns="http://www.w3.org/2000/svg" xmlns:xlink="http://www.w3.org/1999/xlink" x="0px" y="0px"
	 viewBox="0 0 469.333 469.333" style="enable-background:new 0 0 469.333 469.333;" xml:space="preserve">
<g>
	<g>
		<g>
			<path d="M234.667,0C121.646,0,0,20.031,0,64v74.667c0,54.781,140.333,74.667,234.667,74.667s234.667-19.885,234.667-74.667V64
				C469.333,20.031,347.688,0,234.667,0z M234.667,106.667c-124.229,0-192-28.188-192-42.667c0-14.479,67.771-42.667,192-42.667
				s192,28.187,192,42.667C426.667,78.479,358.896,106.667,234.667,106.667z"/>
			<path d="M453.212,321.711c-66.253,39.454-199.01,40.955-218.545,40.955s-152.292-1.502-218.545-40.955
				C8.951,317.441,0,322.372,0,330.717v63.949c0,49.021,118.052,74.667,234.667,74.667s234.667-25.646,234.667-74.667v-63.949
				C469.333,322.372,460.382,317.441,453.212,321.711z"/>
			<path d="M453.212,193.711c-66.253,39.454-199.01,40.955-218.545,40.955s-152.292-1.502-218.545-40.955
				C8.951,189.441,0,194.372,0,202.717v63.949c0,54.781,140.333,74.667,234.667,74.667s234.667-19.885,234.667-74.667v-63.949
				C469.333,194.372,460.382,189.441,453.212,193.711z"/>
		</g>
	</g>
</g>
<g>
</g>
<g>
</g>
<g>
</g>
<g>
</g>
<g>
</g>
<g>
</g>
<g>
</g>
<g>
</g>
<g>
</g>
<g>
</g>
<g>
</g>
<g>
</g>
<g>
</g>
<g>
</g>
<g>
</g>
</svg>
