<?xml version="1.0" standalone="no"?>
<!DOCTYPE svg PUBLIC "-//W3C//DTD SVG 20010904//EN"
 "http://www.w3.org/TR/2001/REC-SVG-20010904/DTD/svg10.dtd">
<svg version="1.0" xmlns="http://www.w3.org/2000/svg"
 width="200.000000pt" height="182.000000pt" viewBox="0 0 200.000000 182.000000"
 preserveAspectRatio="xMidYMid meet">
<metadata>
Created by potrace 1.15, written by Peter Selinger 2001-2017
</metadata>
<g transform="translate(0.000000,182.000000) scale(0.100000,-0.100000)"
fill="#000000" stroke="none">
<path d="M1463 1699 c-49 -24 -109 -87 -129 -135 -8 -18 -14 -55 -14 -81 l0
-48 -26 33 c-14 17 -32 32 -39 32 -8 0 -26 -20 -41 -46 -21 -35 -25 -53 -21
-85 l5 -39 -30 21 -30 22 -56 -56 -56 -57 42 -43 42 -43 -64 4 c-78 5 -121 -8
-174 -53 -79 -68 -113 -185 -78 -269 l14 -34 -36 21 c-99 59 -244 -9 -269
-126 -6 -28 -7 -28 -109 74 l-104 104 -63 -63 -62 -62 215 -215 216 -215 124
0 125 0 -96 97 c-53 54 -104 109 -113 123 -21 32 -20 73 2 93 41 38 78 17 207
-112 l100 -101 62 62 63 62 -53 54 c-28 30 -42 49 -30 43 36 -18 142 -14 188
9 69 33 175 147 175 187 0 13 -68 63 -85 63 -6 0 -28 -22 -48 -49 -47 -61 -94
-86 -131 -70 -14 7 -26 15 -26 18 0 4 46 52 103 109 l102 102 65 -65 c35 -36
69 -65 75 -65 6 0 37 27 70 60 l59 60 -105 107 c-61 63 -109 120 -113 135 -7
30 16 98 33 98 6 0 11 -4 11 -9 0 -21 95 -112 142 -135 64 -32 153 -35 213 -7
57 26 128 92 156 146 l24 46 -25 19 c-65 50 -68 49 -118 -9 -66 -76 -117 -94
-161 -54 -3 2 44 53 104 113 l109 110 -44 46 c-90 92 -203 120 -297 73z"/>
</g>
</svg>
