<?xml version="1.0" standalone="no"?>
<!DOCTYPE svg PUBLIC "-//W3C//DTD SVG 20010904//EN"
 "http://www.w3.org/TR/2001/REC-SVG-20010904/DTD/svg10.dtd">
<svg version="1.0" xmlns="http://www.w3.org/2000/svg"
 width="2000.000000pt" height="2000.000000pt" viewBox="0 0 2000.000000 2000.000000"
 preserveAspectRatio="xMidYMid meet">
<metadata>
Created by potrace 1.15, written by Peter Selinger 2001-2017
</metadata>
<g transform="translate(0.000000,2000.000000) scale(0.100000,-0.100000)"
fill="#000000" stroke="none">
<path d="M13355 18753 c-789 -38 -1542 -241 -2240 -602 -703 -364 -1309 -871
-1765 -1476 -1227 -1630 -1441 -3801 -555 -5642 l83 -172 -42 -28 c-103 -70
-216 -156 -216 -164 0 -12 176 -317 244 -423 l57 -88 -20 -22 c-35 -37 -51
-91 -51 -173 0 -121 17 -196 77 -350 l56 -142 -91 -98 c-50 -54 -246 -253
-435 -442 l-344 -343 91 -80 c169 -149 359 -332 494 -478 133 -143 307 -352
359 -431 l27 -40 -121 -121 -120 -120 -43 64 c-23 34 -67 92 -96 128 -88 109
-902 911 -991 977 -95 71 -208 130 -273 142 l-45 8 -2506 -2505 -2506 -2504
59 -79 c53 -71 59 -82 50 -107 -9 -27 -10 -27 -88 -26 -43 1 -153 7 -244 13
-318 21 -767 13 -1013 -20 -48 -7 -89 -10 -92 -8 -5 6 15 205 50 489 77 627
177 1221 291 1720 127 558 357 1332 566 1905 l69 189 -11 146 c-38 530 -139
1148 -280 1718 -141 569 -395 1406 -640 2107 l-90 258 49 186 c103 386 192
743 188 747 -4 5 -13 -14 -114 -256 -168 -399 -293 -788 -581 -1800 -101 -354
-119 -430 -134 -580 -13 -129 -13 -183 0 -327 17 -178 54 -304 219 -748 297
-800 513 -1526 593 -1998 16 -96 20 -164 20 -355 0 -271 6 -241 -105 -527
-167 -432 -308 -840 -411 -1192 -151 -517 -315 -1304 -346 -1660 -14 -159 -14
-186 1 -343 10 -117 15 -139 49 -245 73 -228 232 -374 490 -449 98 -29 254
-56 322 -56 25 0 62 -3 84 -7 l38 -6 -7 -56 c-9 -66 -9 -68 3 -276 9 -160 25
-240 84 -425 28 -86 118 -277 159 -337 104 -150 156 -212 283 -338 388 -387
772 -569 1364 -645 46 -6 197 -11 335 -11 215 0 276 4 417 25 207 31 231 36
394 90 177 58 351 144 516 255 74 49 501 375 947 724 808 630 813 634 875 646
148 29 626 138 906 206 332 82 657 174 937 265 187 61 333 103 398 114 67 12
270 7 362 -9 157 -27 488 -114 1332 -349 632 -176 1515 -390 1818 -440 382
-64 695 -61 1120 10 285 47 1166 215 1676 319 770 157 1639 384 1929 505 238
99 383 227 483 427 60 120 105 283 162 588 47 257 58 306 121 560 139 559 379
1308 587 1833 l64 163 95 97 c177 181 346 387 530 647 105 150 247 394 348
600 146 299 234 535 327 878 l58 212 3 1000 2 1001 -55 224 c-163 657 -464
1312 -844 1836 -71 97 -72 100 -67 149 3 28 10 157 17 287 23 448 -20 946
-122 1412 -96 438 -269 917 -476 1316 -81 158 -230 413 -265 455 -10 11 -56
76 -104 145 -847 1217 -2146 2035 -3604 2269 -358 58 -773 82 -1125 64z m725
-198 c1230 -130 2351 -666 3225 -1540 920 -920 1466 -2110 1556 -3390 15 -213
6 -677 -16 -870 -121 -1051 -514 -1956 -1199 -2761 -144 -170 -519 -543 -676
-673 -870 -725 -1918 -1141 -3050 -1211 -740 -45 -1553 85 -2235 360 -85 34
-364 159 -428 192 l-38 19 30 41 c17 23 31 45 31 50 0 4 -33 24 -72 44 -88 44
-315 178 -418 247 -697 467 -1288 1115 -1670 1831 -29 53 -54 96 -56 96 -2 0
-23 -14 -46 -30 -23 -17 -42 -29 -44 -28 -12 12 -128 261 -178 382 -574 1378
-531 2935 118 4281 372 772 946 1457 1676 2001 757 564 1679 902 2655 974 169
12 663 4 835 -15z m3689 -8946 c86 -363 270 -1296 321 -1629 l20 -128 -29 -68
c-98 -231 -281 -778 -416 -1244 -348 -1198 -575 -2269 -575 -2713 l0 -84 -437
-146 c-949 -316 -1291 -406 -2768 -728 -302 -66 -624 -136 -715 -156 -91 -19
-174 -35 -185 -35 -39 0 -573 140 -1025 268 -353 101 -763 229 -1350 422 -725
239 -1206 376 -1534 437 l-130 24 -70 -39 c-178 -97 -573 -261 -896 -371 -484
-166 -1259 -378 -1967 -539 l-211 -48 -362 73 c-198 40 -363 75 -366 77 -2 3
26 31 63 63 73 62 109 94 452 408 123 113 229 203 235 201 6 -2 34 17 62 43
28 27 93 86 144 133 51 47 107 99 125 115 17 17 71 66 120 110 49 44 105 96
125 115 20 19 76 71 124 115 49 44 103 94 121 110 51 49 155 144 250 230 49
44 105 96 125 115 20 19 76 71 124 115 49 44 103 94 120 110 18 17 74 68 126
115 51 47 104 96 117 109 l23 24 -19 -54 c-10 -30 -42 -118 -69 -197 l-51
-142 57 -45 c31 -25 60 -45 63 -45 4 0 30 21 58 46 l50 45 -26 23 -26 22 113
292 113 292 95 87 c52 49 109 102 127 118 17 17 73 68 124 115 51 47 128 118
170 157 42 40 79 73 83 73 11 0 247 270 306 350 89 119 171 292 241 505 34
105 66 197 70 205 5 9 12 31 16 50 l8 35 8 -35 c4 -19 13 -62 19 -95 l12 -60
38 105 c66 187 124 295 227 423 48 59 52 74 19 68 -5 -1 7 16 27 38 21 23 37
44 37 47 0 3 -7 19 -16 36 -16 31 -16 31 24 71 l41 40 45 -23 45 -24 26 24 25
24 -35 29 -36 29 58 45 c66 51 164 109 177 105 5 -2 46 11 91 27 101 36 228
55 315 46 65 -6 176 -31 195 -43 5 -4 17 -7 25 -9 25 -3 195 -76 201 -86 3 -5
8 -7 10 -6 4 4 115 -26 154 -40 25 -10 95 6 115 25 8 8 15 32 15 54 0 21 -1
37 -4 35 -2 -3 -16 15 -32 38 -25 37 -99 114 -289 299 -84 83 -171 176 -352
378 -90 102 -172 191 -181 199 -10 7 -17 19 -17 27 0 7 73 -42 163 -110 278
-210 772 -519 790 -495 2 2 43 61 92 130 l89 126 180 -88 c583 -281 1174 -446
1856 -516 206 -21 762 -24 955 -5 533 53 1000 158 1453 326 755 282 1486 765
2004 1323 88 96 125 129 130 119 4 -8 21 -69 37 -137z m-15179 -6236 c244
-294 670 -720 1052 -1051 l107 -92 -184 -175 c-100 -96 -185 -175 -188 -175
-11 0 -804 837 -1047 1104 l-135 149 100 91 c55 50 129 119 165 154 35 34 67
62 70 61 3 0 30 -30 60 -66z"/>
<path d="M11175 7878 c-66 -22 -223 -66 -349 -98 l-230 -58 42 -21 c23 -11 56
-21 74 -21 83 0 463 107 581 162 l47 23 -22 26 -23 27 -120 -40z"/>
<path d="M13330 7423 c0 -5 88 -60 195 -123 108 -63 203 -120 212 -126 15 -10
17 -46 21 -287 l5 -276 75 0 75 0 -6 316 -5 317 -24 18 c-12 9 -31 18 -40 18
-10 0 -18 4 -18 8 0 4 -28 24 -62 44 -59 33 -87 42 -178 53 -19 3 -48 7 -65 9
-93 14 -112 17 -136 20 -14 1 -31 6 -37 10 -7 4 -12 3 -12 -1z"/>
<path d="M1429 17026 c-3 -3 -66 -13 -140 -22 -214 -24 -325 -59 -439 -137
-55 -38 -73 -56 -126 -127 -65 -86 -74 -110 -74 -196 0 -66 -3 -81 -21 -100
l-22 -23 21 -53 c12 -30 22 -85 25 -129 3 -68 14 -102 110 -340 233 -581 323
-868 522 -1670 108 -430 114 -463 122 -588 l6 -104 43 179 c132 558 336 1184
586 1798 l61 149 -17 91 c-33 177 -128 595 -208 919 -74 297 -84 330 -105 338
-28 10 -336 24 -344 15z"/>
</g>
</svg>
