<?xml version="1.0" standalone="no"?>
<!DOCTYPE svg PUBLIC "-//W3C//DTD SVG 20010904//EN"
 "http://www.w3.org/TR/2001/REC-SVG-20010904/DTD/svg10.dtd">
<svg version="1.0" xmlns="http://www.w3.org/2000/svg"
 width="995.000000pt" height="560.000000pt" viewBox="0 0 995.000000 560.000000"
 preserveAspectRatio="xMidYMid meet">
<metadata>
Created by potrace 1.15, written by Peter Selinger 2001-2017
</metadata>
<g transform="translate(0.000000,560.000000) scale(0.100000,-0.100000)"
fill="#000000" stroke="none">
<path d="M0 2800 l0 -2800 4975 0 4975 0 0 2800 0 2800 -4975 0 -4975 0 0
-2800z m1657 969 c225 -31 424 -152 502 -307 37 -73 61 -160 61 -219 l0 -43
-174 0 -174 0 -6 44 c-14 89 -84 165 -186 201 -64 23 -195 30 -273 15 -178
-33 -265 -169 -188 -293 34 -56 100 -81 401 -152 374 -88 448 -115 540 -201
109 -102 155 -281 119 -456 -40 -190 -213 -358 -426 -412 -237 -61 -542 -35
-728 62 -87 46 -199 155 -237 232 -31 62 -55 153 -60 220 l-3 45 175 0 174 0
8 -45 c30 -176 171 -261 412 -247 209 12 311 75 332 204 14 86 -42 161 -152
203 -33 12 -135 38 -229 56 -228 46 -344 78 -440 123 -174 81 -255 218 -255
429 0 186 85 340 243 443 134 87 359 126 564 98z m1235 -341 l3 -183 100 -1
100 -2 3 -121 3 -121 -106 0 -105 0 0 -374 c0 -217 4 -385 10 -400 11 -31 42
-40 133 -41 l67 0 0 -126 0 -127 -122 -7 c-147 -8 -241 5 -318 43 -46 23 -59
35 -82 81 l-28 55 0 447 0 448 -92 3 -93 3 -3 117 -3 117 93 3 93 3 3 183 2
182 170 0 170 0 2 -182z m1078 -148 c95 -15 213 -57 268 -94 26 -18 60 -53 75
-78 54 -87 57 -114 57 -586 0 -461 2 -484 49 -514 13 -8 21 -23 21 -40 l0 -28
-185 0 c-140 0 -187 3 -190 13 -3 6 -11 40 -18 75 l-13 62 -34 -35 c-19 -20
-62 -53 -95 -75 -241 -157 -546 -97 -658 129 -31 63 -32 70 -32 186 0 101 4
129 23 176 64 159 203 232 522 273 158 20 197 31 232 66 23 23 28 37 28 75 0
40 -5 52 -33 80 -50 50 -177 70 -272 44 -52 -15 -110 -74 -124 -127 l-12 -42
-161 0 -161 0 6 60 c5 64 49 169 93 227 52 69 177 132 302 153 69 11 237 11
312 0z m1469 -17 c64 -20 149 -93 176 -152 10 -23 21 -41 25 -41 4 0 20 19 36
42 111 160 379 222 570 132 69 -33 155 -126 186 -201 23 -58 23 -60 26 -575
l3 -518 -175 0 -175 0 -3 458 c-3 441 -4 458 -24 497 -26 50 -72 82 -129 91
-94 14 -165 -17 -220 -94 l-30 -44 -5 -451 -5 -452 -170 0 -170 0 -5 455 c-5
493 -4 484 -62 537 -34 32 -71 43 -141 43 -97 -1 -167 -41 -199 -115 -9 -23
-13 -140 -16 -477 l-3 -448 -172 0 -172 0 2 652 3 653 160 3 159 2 3 -96 3
-97 38 56 c43 63 86 99 152 128 89 39 224 44 334 12z m2004 8 c117 -30 183
-67 262 -146 126 -126 175 -252 183 -472 l5 -143 -473 0 -473 0 6 -54 c12
-114 75 -203 176 -249 36 -17 66 -21 141 -22 83 0 102 3 145 25 31 16 64 44
85 73 l35 47 173 0 174 0 -7 -32 c-14 -65 -68 -148 -141 -217 -125 -120 -268
-171 -472 -171 -131 0 -219 21 -330 76 -115 56 -204 139 -251 233 -112 222
-102 574 23 787 84 145 252 255 421 277 91 12 246 6 318 -12z m1486 -17 c111
-42 176 -103 220 -207 l26 -62 3 -517 3 -518 -175 0 -175 0 -3 458 -3 457 -25
45 c-31 56 -76 86 -140 95 -129 18 -229 -35 -282 -150 -23 -49 -23 -58 -28
-475 l-5 -425 -167 -3 -168 -2 0 655 0 655 165 0 165 0 0 -92 1 -93 32 40 c81
103 158 149 272 165 90 12 210 1 284 -26z"/>
<path d="M3965 2560 c-22 -10 -94 -30 -160 -45 -205 -45 -255 -84 -255 -199 0
-76 23 -117 82 -147 80 -41 236 -8 306 64 53 55 74 117 80 239 3 61 1 108 -4
107 -5 0 -27 -9 -49 -19z"/>
<path d="M7160 3001 c-108 -35 -176 -113 -204 -233 l-6 -28 296 0 297 0 -6 45
c-12 87 -61 152 -146 196 -48 25 -182 36 -231 20z"/>
</g>
</svg>
